<svg width="1313" height="198" viewBox="0 0 1313 198" fill="none" xmlns="http://www.w3.org/2000/svg">
<path d="M283.047 33.5308H336.374C365.461 33.5308 380.005 46.4588 380.005 67.6461C380.005 86.4991 369.411 95.656 356.124 99.0677V99.4263C367.436 101.401 375.157 108.583 376.593 127.257L376.952 131.925C377.67 141.262 377.85 154.01 380.902 158.679V159.217H358.638C356.484 154.728 355.586 147.188 355.406 139.467C354.867 116.304 349.84 108.225 327.217 108.225H305.312V159.217H283.047V33.5308ZM305.312 90.9873H334.937C341.221 90.9873 346.788 89.7311 350.738 86.8576C355.406 83.6256 358.099 78.2398 358.099 70.6985C358.099 62.9774 355.586 57.5907 350.199 54.5384C346.07 52.204 340.863 51.3064 332.782 51.3064H305.312V90.9873Z" fill="black"/>
<path d="M473.736 131.558C467.811 149.693 452.549 161.544 430.464 161.544C401.197 161.544 383.422 141.434 383.422 112.706C383.422 84.695 401.556 64.0468 429.567 64.0468C460.09 64.0468 474.633 87.3888 474.633 118.271H405.147C406.045 135.688 416.998 144.666 430.644 144.666C442.853 144.666 449.138 137.663 451.831 131.558L473.736 131.558ZM405.147 103.368H452.728C452.37 90.0817 443.571 79.8474 429.387 79.8474C415.382 79.8474 406.225 90.0817 405.147 103.368Z" fill="black"/>
<path d="M473.184 66.7398H485.752V38.1908H506.939V66.7398H524.176V82.0013H506.939V131.557C506.939 141.433 509.453 143.228 518.43 143.228C520.405 143.228 522.201 143.228 523.996 143.048V158.849C520.225 159.029 516.814 159.208 513.043 159.208C503.707 159.208 496.345 158.67 492.036 155.617C487.727 152.565 485.752 147.537 485.752 138.56V82.0013H473.184V66.7398Z" fill="black"/>
<path d="M614.494 131.558C608.569 149.693 593.307 161.544 571.222 161.544C541.955 161.544 524.18 141.434 524.18 112.706C524.18 84.695 542.314 64.0468 570.325 64.0468C600.848 64.0468 615.392 87.3888 615.392 118.271H545.905C546.803 135.688 557.756 144.666 571.402 144.666C583.611 144.666 589.895 137.663 592.588 131.558L614.494 131.558ZM545.905 103.368H593.486C593.127 90.0817 584.329 79.8474 570.145 79.8474C556.14 79.8474 546.983 90.0817 545.905 103.368Z" fill="black"/>
<path d="M623.469 33.5308H644.656V159.217H623.469V33.5308Z" fill="black"/>
<path d="M659.02 33.5308H680.207V159.217H659.02V33.5308Z" fill="black"/>
<path d="M109.114 183.545C117.858 183.545 124.947 176.456 124.947 167.711C124.947 158.967 117.858 151.878 109.114 151.878C100.37 151.878 93.2812 158.967 93.2812 167.711C93.2812 176.456 100.37 183.545 109.114 183.545Z" fill="black"/>
<path d="M154.427 183.545C163.171 183.545 170.26 176.456 170.26 167.711C170.26 158.967 163.171 151.878 154.427 151.878C145.682 151.878 138.594 158.967 138.594 167.711C138.594 176.456 145.682 183.545 154.427 183.545Z" fill="black"/>
<path d="M109.114 45.7833C117.858 45.7833 124.947 38.6945 124.947 29.95C124.947 21.2055 117.858 14.1167 109.114 14.1167C100.37 14.1167 93.2812 21.2055 93.2812 29.95C93.2812 38.6945 100.37 45.7833 109.114 45.7833Z" fill="black"/>
<path d="M154.427 45.7833C163.171 45.7833 170.26 38.6945 170.26 29.95C170.26 21.2055 163.171 14.1167 154.427 14.1167C145.682 14.1167 138.594 21.2055 138.594 29.95C138.594 38.6945 145.682 45.7833 154.427 45.7833Z" fill="black"/>
<path d="M62.8993 91.9979C71.6436 91.9979 78.7322 84.909 78.7322 76.1646C78.7322 67.4201 71.6436 60.3313 62.8993 60.3313C54.155 60.3313 47.0664 67.4201 47.0664 76.1646C47.0664 84.909 54.155 91.9979 62.8993 91.9979Z" fill="black"/>
<path d="M62.8993 137.312C71.6436 137.312 78.7322 130.223 78.7322 121.478C78.7322 112.734 71.6436 105.645 62.8993 105.645C54.155 105.645 47.0664 112.734 47.0664 121.478C47.0664 130.223 54.155 137.312 62.8993 137.312Z" fill="black"/>
<path d="M200.657 91.9979C209.401 91.9979 216.49 84.909 216.49 76.1646C216.49 67.4201 209.401 60.3313 200.657 60.3313C191.913 60.3313 184.824 67.4201 184.824 76.1646C184.824 84.909 191.913 91.9979 200.657 91.9979Z" fill="black"/>
<path d="M200.657 137.312C209.401 137.312 216.49 130.223 216.49 121.478C216.49 112.734 209.401 105.645 200.657 105.645C191.913 105.645 184.824 112.734 184.824 121.478C184.824 130.223 191.913 137.312 200.657 137.312Z" fill="black"/>
<path d="M793.286 86.6228H783.973V62.2366H760.467V86.6228H751.227V32.9438H760.467V54.492H783.973V32.9438H793.286V86.6228Z" fill="black"/>
<path d="M824.927 69.6624V47.1173H833.649V86.6098H825.295V82.009H825.222C823.227 85 819.752 87.6068 813.765 87.6068C805.338 87.6068 800.164 82.776 800.164 69.5854V47.1173H808.96V71.5035C808.96 78.0211 812.287 80.168 816.573 80.168C821.6 80.168 824.927 76.2572 824.927 69.6624Z" fill="black"/>
<path d="M889.518 66.6816C889.518 57.403 887.892 53.6451 882.053 53.6451C877.322 53.6451 873.995 57.2501 873.995 63.9977V86.6199H865.273V66.6816C865.273 57.403 863.646 53.6451 857.806 53.6451C853.077 53.6451 849.75 57.2501 849.75 63.9977V86.6199H841.027V47.1274H849.38V51.8053H849.455C851.302 48.9673 854.998 45.9775 860.69 45.9775C865.716 45.9775 869.782 48.2015 872 52.4181C873.995 49.3514 878.283 45.9775 884.639 45.9775C889.37 45.9775 892.918 47.5874 895.358 50.8854C897.427 53.7222 898.24 56.866 898.24 64.7647V86.6199H889.518V66.6816Z" fill="black"/>
<path d="M904.294 59.6268C904.664 50.1941 911.464 46.2074 920.703 46.2074C925.139 46.2074 929.352 47.2044 932.309 49.6583C935.413 52.2651 936.153 55.1019 936.153 62.6178V82.5561C936.153 85.01 936.522 85.7758 936.892 86.3898V86.6198H928.761L928.539 82.8619H928.391C926.543 84.9329 922.848 87.4639 916.712 87.4639C908.359 87.4639 902.594 82.786 902.594 75.5772C902.594 71.5135 904.515 68.5984 907.471 66.6815C911.316 64.1518 916.786 63.0777 921.295 62.5407L923.882 62.2337C927.061 61.8508 927.725 60.4709 927.725 58.3999C927.725 55.179 925.36 52.955 920.408 52.955C914.938 52.955 912.572 55.716 912.572 59.6268H904.294ZM927.948 72.3563V66.9886C927.578 67.3715 927.134 67.5256 925.064 67.9855L919.226 69.2895C913.902 70.5165 911.611 71.8193 911.611 75.1943C911.611 78.7981 914.347 80.715 918.633 80.715C922.921 80.715 927.948 78.414 927.948 72.3563Z" fill="black"/>
<path d="M951.757 64.6877V86.6199H943.035V47.1274H951.388V51.9582H951.462C953.236 49.0443 957.154 45.9775 963.215 45.9775C967.798 45.9775 971.05 47.5874 973.195 50.1184C975.781 53.1093 976.817 57.0201 976.817 62.0809V86.6199H968.02V64.5348C968.02 56.5602 965.58 53.4922 960.258 53.4922C955.011 53.4922 951.757 57.0201 951.757 64.6877Z" fill="black"/>
<path d="M982.93 60.7025H1003.7V68.6H982.93V60.7025Z" fill="black"/>
<path d="M1015.68 73.8973C1015.82 78.9581 1020.04 81.182 1024.7 81.182C1028.61 81.182 1032.6 79.4951 1032.6 75.5072C1032.6 72.3634 1029.5 71.4434 1023.96 69.9865L1020.48 69.0666C1014.35 67.4555 1008.51 65.2316 1008.51 57.717C1008.51 49.5883 1015.97 46.0603 1024.25 46.0603C1032.6 46.0603 1039.48 49.1283 1040.22 58.8669H1032.01C1031.72 54.3431 1028.69 52.5021 1023.96 52.5021C1019.96 52.5021 1017.08 53.959 1017.08 56.7971C1017.08 59.8638 1019.89 60.8608 1024.47 62.0107L1028.54 63.0847C1034.82 64.7716 1041.4 67.0726 1041.4 74.6643C1041.4 83.4059 1034.16 87.6238 1024.62 87.6238C1015.75 87.6238 1007.69 84.1729 1007.32 73.8973H1015.68Z" fill="black"/>
<path d="M1042.43 47.1309H1047.61V34.9385H1056.33V47.1309H1063.43V53.6486H1056.33V74.8139C1056.33 79.0317 1057.37 79.7987 1061.06 79.7987C1061.87 79.7987 1062.61 79.7987 1063.35 79.7217V86.4705C1061.8 86.5464 1060.4 86.6234 1058.84 86.6234C1055 86.6234 1051.97 86.3935 1050.2 85.0894C1048.42 83.7866 1047.61 81.6386 1047.61 77.8048V53.6486H1042.43V47.1309Z" fill="black"/>
<path d="M1067.04 59.6268C1067.41 50.1941 1074.21 46.2074 1083.45 46.2074C1087.88 46.2074 1092.1 47.2044 1095.06 49.6583C1098.16 52.2651 1098.9 55.1019 1098.9 62.6178V82.5561C1098.9 85.01 1099.27 85.7758 1099.64 86.3898V86.6198H1091.51L1091.29 82.8619H1091.14C1089.29 84.9329 1085.59 87.4639 1079.46 87.4639C1071.1 87.4639 1065.34 82.786 1065.34 75.5772C1065.34 71.5135 1067.26 68.5984 1070.22 66.6815C1074.06 64.1518 1079.53 63.0777 1084.04 62.5407L1086.63 62.2337C1089.81 61.8508 1090.47 60.4709 1090.47 58.3999C1090.47 55.179 1088.11 52.955 1083.15 52.955C1077.68 52.955 1075.32 55.716 1075.32 59.6268H1067.04ZM1090.69 72.3563V66.9886C1090.32 67.3715 1089.88 67.5256 1087.81 67.9855L1081.97 69.2895C1076.65 70.5165 1074.36 71.8193 1074.36 75.1943C1074.36 78.7981 1077.09 80.715 1081.38 80.715C1085.67 80.715 1090.69 78.414 1090.69 72.3563Z" fill="black"/>
<path d="M1114.51 64.6877V86.6199H1105.79V47.1274H1114.14V51.9582H1114.21C1115.99 49.0443 1119.9 45.9775 1125.97 45.9775C1130.55 45.9775 1133.8 47.5874 1135.94 50.1184C1138.53 53.1093 1139.57 57.0201 1139.57 62.0809V86.6199H1130.77V64.5348C1130.77 56.5602 1128.33 53.4922 1123.01 53.4922C1117.76 53.4922 1114.51 57.0201 1114.51 64.6877Z" fill="black"/>
<path d="M1181.31 86.6228H1172.74V81.9449H1172.59C1170.6 85.2429 1166.6 87.6197 1161.28 87.6197C1151.53 87.6197 1144.06 79.721 1144.06 66.7615C1144.06 54.032 1151.82 45.9804 1161.36 45.9804C1167.27 45.9804 1170.6 48.5101 1172.52 50.7341V32.9438H1181.31V86.6228ZM1153.3 66.9145C1153.3 75.4273 1157.07 80.488 1163.28 80.488C1169.19 80.488 1172.96 75.8102 1172.96 66.8386C1172.96 58.02 1169.19 53.0351 1163.2 53.0351C1157.07 53.0351 1153.3 58.4028 1153.3 66.9145Z" fill="black"/>
<path d="M1187.82 59.6268C1188.19 50.1941 1194.99 46.2074 1204.23 46.2074C1208.66 46.2074 1212.88 47.2044 1215.83 49.6583C1218.94 52.2651 1219.68 55.1019 1219.68 62.6178V82.5561C1219.68 85.01 1220.05 85.7758 1220.42 86.3898V86.6198H1212.28L1212.06 82.8619H1211.91C1210.07 84.9329 1206.37 87.4639 1200.23 87.4639C1191.88 87.4639 1186.12 82.786 1186.12 75.5772C1186.12 71.5135 1188.04 68.5984 1190.99 66.6815C1194.84 64.1518 1200.31 63.0777 1204.82 62.5407L1207.41 62.2337C1210.58 61.8508 1211.25 60.4709 1211.25 58.3999C1211.25 55.179 1208.88 52.955 1203.93 52.955C1198.46 52.955 1196.1 55.716 1196.1 59.6268H1187.82ZM1211.47 72.3563V66.9886C1211.1 67.3715 1210.66 67.5256 1208.59 67.9855L1202.75 69.2895C1197.43 70.5165 1195.13 71.8193 1195.13 75.1943C1195.13 78.7981 1197.87 80.715 1202.16 80.715C1206.44 80.715 1211.47 78.414 1211.47 72.3563Z" fill="black"/>
<path d="M1235.04 52.4952C1236.23 49.0443 1239.85 45.9775 1245.47 45.9775C1245.76 45.9775 1246.35 45.9775 1246.65 46.0534V54.4121C1245.91 54.3362 1245.17 54.2592 1244.36 54.2592C1238.59 54.2592 1235.27 57.863 1235.27 65.5317V86.6199H1226.54V47.1275H1234.9V52.4952L1235.04 52.4952Z" fill="black"/>
<path d="M1283.82 86.6228H1275.24V81.9449H1275.1C1273.1 85.2429 1269.11 87.6197 1263.79 87.6197C1254.03 87.6197 1246.56 79.721 1246.56 66.7615C1246.56 54.032 1254.32 45.9804 1263.86 45.9804C1269.77 45.9804 1273.1 48.5101 1275.02 50.7341V32.9438H1283.82V86.6228ZM1255.8 66.9145C1255.8 75.4273 1259.57 80.488 1265.78 80.488C1271.7 80.488 1275.47 75.8102 1275.47 66.8386C1275.47 58.02 1271.7 53.0351 1265.71 53.0351C1259.57 53.0351 1255.8 58.4028 1255.8 66.9145Z" fill="black"/>
<path d="M775.69 131.083C775.099 127.402 772.289 123.875 767.189 123.875C761.128 123.875 757.284 128.706 757.284 137.755C757.284 146.726 761.349 151.251 767.337 151.251C772.438 151.251 775.172 147.8 775.986 143.812H784.487C783.008 152.401 776.799 158.383 767.189 158.383C755.066 158.383 748.266 149.641 748.266 137.602C748.266 125.562 755.436 116.744 767.264 116.744C776.576 116.744 783.082 122.418 784.116 131.083L775.69 131.083Z" fill="black"/>
<path d="M787.892 130.384C788.261 120.951 795.062 116.964 804.302 116.964C808.738 116.964 812.95 117.961 815.907 120.415C819.011 123.022 819.75 125.859 819.75 133.375V153.313C819.75 155.767 820.121 156.533 820.49 157.147V157.377H812.36L812.138 153.619H811.989C810.142 155.69 806.445 158.221 800.31 158.221C791.958 158.221 786.191 153.543 786.191 146.334C786.191 142.27 788.114 139.355 791.07 137.438C794.915 134.909 800.384 133.835 804.893 133.298L807.481 132.991C810.659 132.608 811.324 131.228 811.324 129.157C811.324 125.936 808.959 123.712 804.006 123.712C798.537 123.712 796.171 126.473 796.171 130.384H787.892ZM811.546 143.113V137.745C811.176 138.128 810.733 138.282 808.663 138.742L802.823 140.046C797.501 141.273 795.21 142.576 795.21 145.951C795.21 149.555 797.944 151.472 802.232 151.472C806.52 151.472 811.546 149.171 811.546 143.113Z" fill="black"/>
<path d="M826.617 103.701H835.34V157.38H826.617V103.701Z" fill="black"/>
<path d="M842.723 103.701H851.445V157.38H842.723V103.701Z" fill="black"/>
<path d="M864.237 144.654C864.385 149.715 868.598 151.939 873.255 151.939C877.172 151.939 881.164 150.252 881.164 146.264C881.164 143.12 878.06 142.2 872.516 140.743L869.041 139.823C862.906 138.212 857.066 135.988 857.066 128.474C857.066 120.345 864.532 116.817 872.811 116.817C881.164 116.817 888.039 119.885 888.778 129.624H880.573C880.278 125.1 877.247 123.259 872.516 123.259C868.525 123.259 865.641 124.716 865.641 127.554C865.641 130.621 868.45 131.618 873.033 132.768L877.099 133.842C883.382 135.528 889.961 137.829 889.961 145.421C889.961 154.163 882.717 158.381 873.181 158.381C864.31 158.381 856.254 154.93 855.883 144.654H864.237Z" fill="black"/>
<path d="M903.495 157.385H893.516V146.956H903.495V157.385Z" fill="black"/>
</svg>
